<svg width="200" height="34" viewBox="0 0 200 34" fill="none" xmlns="http://www.w3.org/2000/svg">
<path fill-rule="evenodd" clip-rule="evenodd" d="M18.1132 0H0V33.7736H200V0H181.887H140.943H100H59.0566H18.1132ZM18.1132 0L22.1799 12.5159H35.3399L24.6932 20.2512L28.7599 32.7671L18.1132 25.0318L7.46653 32.7671L11.5332 20.2512L0.886524 12.5159H14.0465L18.1132 0ZM59.0566 0L63.1233 12.5159H76.2833L65.6366 20.2512L69.7033 32.7671L59.0566 25.0318L48.4099 32.7671L52.4766 20.2512L41.8299 12.5159H54.9899L59.0566 0ZM100 0L104.067 12.5159H117.227L106.58 20.2512L110.647 32.7671L100 25.0318L89.3533 32.7671L93.42 20.2512L82.7733 12.5159H95.9333L100 0ZM140.943 0L145.01 12.5159H158.17L147.523 20.2512L151.59 32.7671L140.943 25.0318L130.297 32.7671L134.363 20.2512L123.717 12.5159H136.877L140.943 0ZM181.887 0L177.82 12.5159H164.66L175.307 20.2512L171.24 32.7671L181.887 25.0318L192.533 32.7671L188.467 20.2512L199.113 12.5159H185.953L181.887 0Z" fill="white"/>
</svg>
